%FSDAX23Y23*%
%MOIN*%
%SFA1B1*%

%IPPOS*%
%ADD11C,0.010000*%
%ADD14R,0.079000X0.138000*%
%ADD15C,0.060000*%
%ADD16O,0.071000X0.079000*%
%LNelectrodo-1*%
%LPD*%
G36*
X02329Y02817D02*
D01*
X02327Y02808*
X02324Y02789*
X02323Y02771*
X02325Y02752*
X02329Y02734*
X02336Y02716*
X02345Y02700*
X02357Y02685*
X02363Y02678*
X01984Y02299*
Y01492*
X01906*
Y01493*
X01910Y01496*
X01917Y01504*
X01924Y01513*
X01930Y01523*
X01935Y01533*
X01940Y01543*
X01942Y01554*
X01944Y01565*
X01945Y01571*
Y02316*
X02282Y02653*
X02275Y02663*
X02264Y02685*
X02255Y02708*
X02248Y02731*
X02245Y02756*
X02244Y02780*
X02246Y02805*
X02250Y02829*
X02254Y02841*
X02329Y02817*
G37*
G36*
X02525Y02983D02*
X02551Y02973D01*
X02575Y02960*
X02597Y02945*
X02617Y02927*
X02634Y02906*
X02649Y02883*
X02661Y02859*
X02670Y02833*
X02676Y02807*
X02678Y02780*
X02677Y02753*
X02672Y02726*
X02664Y02700*
X02653Y02675*
X02639Y02652*
X02631Y02641*
X02717Y02543*
Y02475*
X02184Y01942*
Y01492*
X02106*
Y01493*
X02110Y01496*
X02117Y01504*
X02124Y01513*
X02130Y01523*
X02135Y01533*
X02140Y01543*
X02142Y01554*
X02144Y01565*
X02145Y01571*
Y01959*
X02677Y02491*
Y02529*
X02551Y02672*
X02558Y02678*
X02571Y02693*
X02581Y02708*
X02589Y02725*
X02595Y02743*
X02598Y02762*
X02599Y02780*
X02597Y02799*
X02592Y02817*
X02585Y02835*
X02576Y02851*
X02565Y02866*
X02551Y02880*
X02536Y02891*
X02520Y02900*
X02502Y02907*
X02493Y02909*
X02512Y02986*
X02525Y02983*
G37*
G36*
X02488Y02871D02*
X02504Y02864D01*
X02520Y02855*
X02533Y02843*
X02544Y02828*
X02553Y02812*
X02558Y02795*
X02559Y02776*
X02558Y02758*
X02553Y02741*
X02545Y02725*
X02535Y02710*
X02521Y02698*
X02506Y02688*
X02489Y02681*
X02480Y02679*
Y02517*
X02084Y02121*
Y01492*
X02006*
Y01493*
X02010Y01496*
X02017Y01504*
X02024Y01513*
X02030Y01523*
X02035Y01533*
X02039Y01543*
X02042Y01554*
X02044Y01565*
X02045Y01571*
Y02137*
X02441Y02533*
Y02679*
X02432Y02681*
X02415Y02688*
X02400Y02698*
X02387Y02710*
X02376Y02725*
X02368Y02741*
X02363Y02758*
X02362Y02776*
X02364Y02795*
X02369Y02812*
X02377Y02828*
X02388Y02843*
X02401Y02855*
X02417Y02864*
X02434Y02871*
X02452Y02874*
X02470*
X02488Y02871*
G37*
G54D11*
X01850Y01299D02*
X02835D01*
Y04252*
X01850D02*
X02835D01*
X01850Y01299D02*
Y04252D01*
X02524Y03686D02*
X02569D01*
X02578Y03684*
X02581Y03681*
X02584Y03675*
Y03669*
X02581Y03664*
X02578Y03661*
X02569Y03658*
X02564*
X02544Y03702D02*
X02572D01*
X02581Y03705*
X02584Y03710*
Y03719*
X02581Y03725*
X02572Y03733*
X02544D02*
X02584D01*
X02544Y03783D02*
X02584D01*
X02552D02*
X02547Y03778D01*
X02544Y03772*
Y03763*
X02547Y03758*
X02552Y03752*
X02561Y03749*
X02567*
X02575Y03752*
X02581Y03758*
X02584Y03763*
Y03772*
X02581Y03778*
X02575Y03783*
X02544Y03799D02*
X02584D01*
X02555D02*
X02547Y03808D01*
X02544Y03814*
Y03822*
X02547Y03828*
X02555Y03831*
X02584*
X02538Y03936D02*
X02532Y03934D01*
X02527Y03928*
X02524Y03922*
Y03911*
X02527Y03905*
X02532Y03899*
X02538Y03896*
X02547Y03894*
X02561*
X02569Y03896*
X02575Y03899*
X02581Y03905*
X02584Y03911*
Y03922*
X02581Y03928*
X02575Y03934*
X02569Y03936*
X02544Y03988D02*
X02584D01*
X02552D02*
X02547Y03982D01*
X02544Y03976*
Y03968*
X02547Y03962*
X02552Y03956*
X02561Y03953*
X02567*
X02575Y03956*
X02581Y03962*
X02584Y03968*
Y03976*
X02581Y03982*
X02575Y03988*
X02544Y04004D02*
X02584D01*
X02555D02*
X02547Y04012D01*
X02544Y04018*
Y04026*
X02547Y04032*
X02555Y04035*
X02584*
X02555D02*
X02547Y04043D01*
X02544Y04049*
Y04058*
X02547Y04063*
X02555Y04066*
X02584*
X02524Y04091D02*
X02527Y04094D01*
X02524Y04097*
X02521Y04094*
X02524Y04091*
X02544Y04094D02*
X02584D01*
X02524Y04107D02*
X02584D01*
X02544Y04134D02*
X02547Y04128D01*
X02552Y04123*
X02561Y04120*
X02567*
X02575Y04123*
X02581Y04128*
X02584Y04134*
Y04143*
X02581Y04148*
X02575Y04154*
X02567Y04157*
X02561*
X02552Y04154*
X02547Y04148*
X02544Y04143*
Y04134*
X02683Y03656D02*
X02623Y03633D01*
X02683Y03610*
X02663Y03619D02*
Y03648D01*
X02643Y03670D02*
X02683D01*
X02660D02*
X02651Y03673D01*
X02645Y03679*
X02643Y03684*
Y03693*
X02623Y03704D02*
X02625Y03707D01*
X02623Y03710*
X02620Y03707*
X02623Y03704*
X02643Y03707D02*
X02683D01*
X02643Y03755D02*
X02683D01*
X02651D02*
X02645Y03749D01*
X02643Y03743*
Y03735*
X02645Y03729*
X02651Y03723*
X02660Y03720*
X02665*
X02674Y03723*
X02680Y03729*
X02683Y03735*
Y03743*
X02680Y03749*
X02674Y03755*
X02651Y03802D02*
X02645Y03799D01*
X02643Y03791*
Y03782*
X02645Y03774*
X02651Y03771*
X02657Y03774*
X02660Y03779*
X02663Y03794*
X02665Y03799*
X02671Y03802*
X02674*
X02680Y03799*
X02683Y03791*
Y03782*
X02680Y03774*
X02674Y03771*
X02637Y03905D02*
X02631Y03902D01*
X02625Y03896*
X02623Y03890*
Y03879*
X02625Y03873*
X02631Y03868*
X02637Y03865*
X02645Y03862*
X02660*
X02668Y03865*
X02674Y03868*
X02680Y03873*
X02683Y03879*
Y03890*
X02680Y03896*
X02674Y03902*
X02668Y03905*
X02643Y03956D02*
X02683D01*
X02651D02*
X02645Y03950D01*
X02643Y03944*
Y03936*
X02645Y03930*
X02651Y03924*
X02660Y03922*
X02665*
X02674Y03924*
X02680Y03930*
X02683Y03936*
Y03944*
X02680Y03950*
X02674Y03956*
X02651Y04003D02*
X02645Y04000D01*
X02643Y03992*
Y03983*
X02645Y03975*
X02651Y03972*
X02657Y03975*
X02660Y03980*
X02663Y03995*
X02665Y04000*
X02671Y04003*
X02674*
X02680Y04000*
X02683Y03992*
Y03983*
X02680Y03975*
X02674Y03972*
X02623Y04024D02*
X02671D01*
X02680Y04027*
X02683Y04033*
Y04039*
X02643Y04016D02*
Y04036D01*
Y04047D02*
X02683D01*
X02660D02*
X02651Y04050D01*
X02645Y04056*
X02643Y04061*
Y04070*
X02623Y04081D02*
X02625Y04084D01*
X02623Y04087*
X02620Y04084*
X02623Y04081*
X02643Y04084D02*
X02683D01*
X02623Y04097D02*
X02683D01*
X02623Y04110D02*
X02683D01*
X02643Y04137D02*
X02645Y04131D01*
X02651Y04125*
X02660Y04123*
X02665*
X02674Y04125*
X02680Y04131*
X02683Y04137*
Y04145*
X02680Y04151*
X02674Y04157*
X02665Y04160*
X02660*
X02651Y04157*
X02645Y04151*
X02643Y04145*
Y04137*
Y04173D02*
X02683D01*
X02654D02*
X02645Y04181D01*
X02643Y04187*
Y04196*
X02645Y04201*
X02654Y04204*
X02683*
X02733Y03681D02*
X02730D01*
X02724Y03684*
X02721Y03687*
X02719Y03693*
Y03704*
X02721Y03710*
X02724Y03713*
X02730Y03716*
X02736*
X02741Y03713*
X02750Y03707*
X02779Y03678*
Y03718*
X02719Y03749D02*
X02721Y03740D01*
X02730Y03735*
X02744Y03732*
X02753*
X02767Y03735*
X02776Y03740*
X02779Y03749*
Y03755*
X02776Y03763*
X02767Y03769*
X02753Y03772*
X02744*
X02730Y03769*
X02721Y03763*
X02719Y03755*
Y03749*
X02730Y03785D02*
X02727Y03791D01*
X02719Y03800*
X02779*
X02719Y03869D02*
X02779Y03841D01*
X02719Y03829D02*
Y03869D01*
X02733Y03886D02*
X02730D01*
X02724Y03888*
X02721Y03891*
X02719Y03897*
Y03908*
X02721Y03914*
X02724Y03917*
X02730Y03920*
X02736*
X02741Y03917*
X02750Y03911*
X02779Y03883*
Y03923*
X02739Y03973D02*
X02747Y03970D01*
X02753Y03965*
X02756Y03956*
Y03953*
X02753Y03945*
X02747Y03939*
X02739Y03936*
X02736*
X02727Y03939*
X02721Y03945*
X02719Y03953*
Y03956*
X02721Y03965*
X02727Y03970*
X02739Y03973*
X02753*
X02767Y03970*
X02776Y03965*
X02779Y03956*
Y03950*
X02776Y03942*
X02770Y03939*
X02719Y04007D02*
X02721Y03998D01*
X02730Y03992*
X02744Y03990*
X02753*
X02767Y03992*
X02776Y03998*
X02779Y04007*
Y04012*
X02776Y04021*
X02767Y04027*
X02753Y04029*
X02744*
X02730Y04027*
X02721Y04021*
X02719Y04012*
Y04007*
Y04057D02*
X02721Y04049D01*
X02727Y04046*
X02733*
X02739Y04049*
X02741Y04054*
X02744Y04066*
X02747Y04074*
X02753Y04080*
X02759Y04083*
X02767*
X02773Y04080*
X02776Y04077*
X02779Y04069*
Y04057*
X02776Y04049*
X02773Y04046*
X02767Y04043*
X02759*
X02753Y04046*
X02747Y04051*
X02744Y04060*
X02741Y04071*
X02739Y04077*
X02733Y04080*
X02727*
X02721Y04077*
X02719Y04069*
Y04057*
Y04131D02*
Y04102D01*
X02744Y04099*
X02741Y04102*
X02739Y04111*
Y04119*
X02741Y04128*
X02747Y04133*
X02756Y04136*
X02761*
X02770Y04133*
X02776Y04128*
X02779Y04119*
Y04111*
X02776Y04102*
X02773Y04099*
X02767Y04096*
X02306Y01440D02*
Y01380D01*
Y01440D02*
X02332D01*
X02341Y01437*
X02344Y01434*
X02346Y01429*
Y01423*
X02344Y01417*
X02341Y01414*
X02332Y01412*
X02306*
X02326D02*
X02346Y01380D01*
X02360Y01403D02*
X02394D01*
Y01409*
X02391Y01414*
X02388Y01417*
X02383Y01420*
X02374*
X02368Y01417*
X02363Y01412*
X02360Y01403*
Y01397*
X02363Y01389*
X02368Y01383*
X02374Y01380*
X02383*
X02388Y01383*
X02394Y01389*
X02454Y01440D02*
X02468Y01380D01*
X02483Y01440D02*
X02468Y01380D01*
X02483Y01440D02*
X02497Y01380D01*
X02511Y01440D02*
X02497Y01380D01*
X02523Y01403D02*
X02558D01*
Y01409*
X02555Y01414*
X02552Y01417*
X02546Y01420*
X02538*
X02532Y01417*
X02526Y01412*
X02523Y01403*
Y01397*
X02526Y01389*
X02532Y01383*
X02538Y01380*
X02546*
X02552Y01383*
X02558Y01389*
X02660Y01426D02*
X02658Y01431D01*
X02652Y01437*
X02646Y01440*
X02635*
X02629Y01437*
X02623Y01431*
X02620Y01426*
X02618Y01417*
Y01403*
X02620Y01394*
X02623Y01389*
X02629Y01383*
X02635Y01380*
X02646*
X02652Y01383*
X02658Y01389*
X02660Y01394*
X02677Y01403D02*
X02712D01*
Y01409*
X02709Y01414*
X02706Y01417*
X02700Y01420*
X02692*
X02686Y01417*
X02680Y01412*
X02677Y01403*
Y01397*
X02680Y01389*
X02686Y01383*
X02692Y01380*
X02700*
X02706Y01383*
X02712Y01389*
G54D14*
X01945Y01433D03*
X02045D03*
X02145D03*
G54D15*
X02717Y02323D03*
Y03110D03*
X02047Y02795D03*
G54D16*
X01945Y01413D03*
X02145D03*
X01945D03*
X02045D03*
M02*